<svg class="svg svg-koi" xmlns="http://www.w3.org/2000/svg" viewBox="0 0 418.44 839.04">
  <g class="svg-koi-primary">
    <path d="M112.6,460.43c2-11.06,7.81-18.92,19.06-21.86,2-.53,3.5-2.24,5.71-2,2.39,2.21,2,5.15,1.37,7.69-2.93,11.57,6.75,18.05,18.7,15,4.92-1.27,9.95-2.72,15.18-1.83,2,5.15,1.18,10.51,1,15.78A45.94,45.94,0,0,0,175,487.31c.66,2.35,2.92,4.48,1.78,7.29a97.1,97.1,0,0,0-22.93-6.88c-4.56-.8-7.53,2.36-7.32,7a12.44,12.44,0,0,0,1.22,5.13A77.18,77.18,0,0,1,153.53,516a24.51,24.51,0,0,0,4.44,8.66,76.37,76.37,0,0,1,9.73,16.05c2.24,5.13,1.58,8.91-2.54,12.52a9.7,9.7,0,0,0-3.57,5.61c-2.14-3.74-2.8-8.2-5.58-11.61-2.39-2.93-4.71-6.46-9.36-4.89-2.91,1-4.38,6.29-3.16,11,1.16,4.48,2.59,8.89,3.86,13.35,2.45,8.63,4.14,17.52,8.4,25.55,1.84,3.49,4.39,6.84,4.61,10.79a51.7,51.7,0,0,0,4.94,19.29c2.31,5,3.13,10.43,3.54,15.94.62,8.29,4,15.75,7.19,23.32,1.88,4.47,4.57,9.34.81,14.32a23.62,23.62,0,0,1-8.71-7.26c-2.91-3.92-4.94-8.46-9-11.53-1.24-.94-1.67-2.81-1.75-4.5-.26-5.29-3-9-7.46-11.52-4.08-2.31-7.84-4.9-10.69-8.73s-7.61-4.75-12-5.74A15,15,0,0,1,116,616.9a37.8,37.8,0,0,0-7.56-12.09c-3.33-3.52-5.23-7.49-4.4-12.64.57-3.61-1.33-6.45-4-9-5.14-4.77-4-9,2.74-11.44,3.27,2.77,6.33,6,11.25,5.13.38,2.43.88,4.86,1.11,7.3.13,1.44.32,2.92,1.48,3.68a30.64,30.64,0,0,1,8.92,9.46c1.7,2.62,4.54,2.94,7.37,2.36s3.46-2.78,4-5.17a11.11,11.11,0,0,0-1.65-9c-2.05-3.09-4-6.67-3.7-10.29.56-8.43-3.17-15.35-6.48-22.54a13.58,13.58,0,0,0-7.27-7.36c-2.41-1-5-2.2-6-4.74-5.14-12.47-6.87-19.37,5.13-29.47a37.56,37.56,0,0,1,3.23-2.54c1.86-1.24,2.43-3,2.87-5.12.89-4.36-1.13-8.32-1.18-12.47-.06-4.85-.49-9.51-2.35-14.06-.86-2.1-2.16-4.29-1.79-6.67C118.39,465.68,116.12,462.77,112.6,460.43Z"/>
    <path d="M240.79,739.07l3.23-5.65a8.71,8.71,0,0,0,7.91-5,73,73,0,0,0,2.6-7.32c2.06-5.71,6.42-8.67,12.14-9.77,4.7-.91,7,2.48,9.72,5.48,3.74,4.14,6.24,9.37,11,12.57-3.65,3.26-4.39,7-2.53,11.21,6,13.54,18.79,19.42,30.27,26.73,2.15,1.37,3.81-.62,5.3-1.92s2.26-3.38,1.11-5.18c-6.65-10.46-12.07-22-23.77-28.22,2.05-2.27,1.55-4.89.59-7.27a33,33,0,0,1,.79-27.35A34.7,34.7,0,0,0,313.91,710c-3.22,7.2-3.31,8.3,2.8,14.16,7,6.77,10.57,15.1,12.53,24.35.44,2,.84,4.25.09,6.1-1.66,4.12-.33,7,2.81,9.65a16.14,16.14,0,0,1,2.93,3.39c3.15,4.68,4.62,5.43,9.76,3.51,4.19-1.57,8.36-3.33,11.66-6.57-1.58,8.37-.12,16.09,4.91,23-5.36,2.18-11.62,2.16-16,6.83a2.88,2.88,0,0,1-4.43,0c-1.37-1.65-4-3-2.63-5.79,1.32-2.65-.56-4.23-1.88-5.78-1.58-1.83-3.24-.09-4.79.57-.88.37-1.69.89-2.54,1.34-7.12,3.8-9.24,3.25-13-3.71a3.42,3.42,0,0,0-4-1.93c-2.16.35-4.33.73-6.49,1.05-3,.45-5.75,0-7.95-2.3a17,17,0,0,0-11-5c-4.7-.47-8.64-2.23-11.47-6.26a13.76,13.76,0,0,0-7.72-5.13A24.59,24.59,0,0,1,252.65,750a60.6,60.6,0,0,0-5.32-7.26C245.67,740.67,243.79,738.79,240.79,739.07Z"/>
    <path d="M235.46,594.37c.54,5.06,3.89,7.94,8,10.15a17.08,17.08,0,0,0,4.88,2.07c16.06,2.73,22.55,15.74,30,27.74-.66.14-1.32.32-2,.42-3.61.53-7.13,1.3-8.67,5.17-1.67,4.23-.6,8,2.34,11.34,2.15,2.46,4.35,4.9,6.25,7.55,3.33,4.66,5.94,9.68,6.15,15.6-6.68-7.54-14.4-5.94-22.39-2.64a22.46,22.46,0,0,1-5.55,1.38c-5.24.69-10.82-2.79-11.17-8-.41-6.17-3.87-8.94-8.89-10.89-4.07-1.58-6.5-4.29-6.47-8.93,0-3.86-1.8-6.71-5.15-8.72a67.73,67.73,0,0,1-11.43-9.26,26.92,26.92,0,0,1-8.28-24.69c1.16-7.1,3.44-13.8.31-20.82,2.23,3,5.21,5.5,6,9.4a13.12,13.12,0,0,0,5.21,8.46,5.12,5.12,0,0,1,1.62,6.94c-2.76,4.89-.77,8.28,2.78,11.39s6.24,6.43,5.92,11.47c-.08,1.39.78,2.57,1.32,3.83s1.41,2.22,2.76,1.78a2.92,2.92,0,0,0,2.22-3.47,10.76,10.76,0,0,0-1.71-4.12c-3.49-4.54-4.32-9.45-3.27-15,.69-3.71-.53-6.95-4.44-8.68-2.91-1.28-2.61-3.42-1-5.61C224,593.94,229.82,592.43,235.46,594.37Z"/>
    <path d="M239.78,148.79A18.63,18.63,0,0,0,227,157.92c-1.74,3-4.59,2.52-7.05.45-4.61-3.87-4.54-10.11.29-13.63a10.51,10.51,0,0,0,4.58-8.31,20.61,20.61,0,0,1,2.74-9.38c7.87-13.25,17.16-25,32.36-30.58,6.68-2.44,12.7-6.39,19.53-8.52,1.47-.46,2.93-1.07,4.34-.14,3.45,2.28,5.92.73,8.16-1.91.54-.63,1.09-1.24,1.6-1.88,1.94-2.48,4.12-4.77,7.59-3.34a8,8,0,0,1,5.34,8,29.54,29.54,0,0,0,2.48,13.15c2,4.79-2,9.53-7.21,8.74-2.38-.36-4.26-1.82-6.35-2.8-4.31-2-7.19-.68-8.15,3.94-.3,1.47-.38,3-.54,4.48-.38,3.58-1.78,5.91-6,5.7-3.51-.19-5.61,2.44-7.88,4.61a38.61,38.61,0,0,1,3.79-13.23,16.36,16.36,0,0,0,1.71-6.67c.17-2.81-.18-5.84-2.78-7.25a7.77,7.77,0,0,0-8.53.45c-8,6-16.76,11-23.62,18.47C233.51,129,232.58,136.58,239.78,148.79Z"/>
    <path d="M67,412.87c2.15-1.39,2.33-3.05,1.3-5.26-.67-1.45-1.55-3.13-.76-4.72,1.34-2.69,3.29-5,6.68-4.32,3.12.62,3.2,3.43,3.15,5.89a11.29,11.29,0,0,1-1.09,4.32,5.1,5.1,0,0,0,.55,5.41c3.65,5.36,5.45,11.9,10.47,16.41.54.48.62,1.47.91,2.23-.41,2.79-.83,5.59-1.24,8.39a9.08,9.08,0,0,0-2,1.28c-3.56,3.84-5.3,8.84-8.22,13.12-1.11,1.63,0,2.64,2,3.36a19.13,19.13,0,0,1,12.73,20.45c-.34,3.25-1.38,6.43-1.08,9.75-8.38,3.32-11.22,10.3-12.29,18.48a8.05,8.05,0,0,1-.7,1.81c-3.5-2.63-4.56-6.19-5.26-10.49a239,239,0,0,0-5.68-23.75,14.43,14.43,0,0,1,8.12-16.72A10.08,10.08,0,0,0,73,457.32c-6.79-3.2-9.18-8.47-7.72-15.76.57-2.83-.41-5.7-.8-8.44C64.51,433.12,62.72,416.4,67,412.87Z"/>
    <path d="M135.38,300.83c.48,6.32.53,12.68,1.73,18.93-3.84-5.28-5.68-5.5-10.78-1.14a27.83,27.83,0,0,0-3.48,3.47,3.63,3.63,0,0,0-.83,3.81c1.12,2.94,6.66,6.57,9.5,6.1,4.22-.69,6.58-3.52,6.9-8.27a123.71,123.71,0,0,0,8.46,10.91A15.35,15.35,0,0,1,150,348.07c-1.12,5.46-4.21,7.69-9.8,7.81-3.83.09-7.53-1.16-11.43-.57-6.56,1-11,5.28-15.81,9.22-3.42-2.43-2.5-5.53-.82-8.25,1.8-2.91,1.53-5.11-.54-7.74-6.63-8.45-6.77-11.66-.25-20.3a13.06,13.06,0,0,0,2.54-11.77c-1.78-7.83,5.51-14.26,13.24-11.91a3.93,3.93,0,0,0,3.47-.66C132.18,302.9,133.77,301.86,135.38,300.83Z"/>
    <path d="M327.52,568.53c-4.45-4.31-8-8.28-8.35-14.72-.34-6.69-1.29-13.35-1.8-20-.23-3,.72-6,1.49-8.87a23.81,23.81,0,0,0,.23-12.59c-1.46-5.31.39-10,2.58-14.62,1.84-3.85,3.71-7.62,3.81-12,0-1.38.52-2.8,2.25-3,2.07-.27,2,1.48,2.31,2.72a12.47,12.47,0,0,0,3,5.28,83.62,83.62,0,0,1,8.38,11.62,12.52,12.52,0,0,1,1.86,9.82c-1.18,4.68-.32,8.91,1.68,13.11,2.59,5.41,3.2,10.93,1,16.68a13.94,13.94,0,0,0-1.22,6c.68,7.41-.45,14.11-5.76,19.76-1.9,2-.92,4.74-1,7.15,0,2.79-.23,5.84-3.72,5.6-2.79-.2-4.89-2.3-4.7-5.68C329.23,569.86,327.52,568.53,327.52,568.53Zm8.83-52c-3.43-.07-5.44,1.62-5.4,4.72,0,2.71.57,5.23,4.16,5.28a5.6,5.6,0,0,0,5.39-5.83C340.44,518,339.18,516.31,336.35,516.5Z"/>
    <path d="M67.28,714c12.69.12,23.87,3.16,29.8,16,.79,1.73,2.35,2.58,3.7,3.71,1,.85,2.16,1.9,1.65,3.48s-1.87,1.35-3.06,1.64a136.77,136.77,0,0,0-21.11,6.92c-2.47,1-4.19,1.33-6.24-.62a17.92,17.92,0,0,0-13.23-4.71c-7.5.22-9.95-4.38-11.18-12.94-.8-5.66,3.33-10.52,9.44-12.14A57.17,57.17,0,0,1,67.28,714Z"/>
    <path d="M187.06,514.45c2.6,2.91,5.25,5.77,7.78,8.74,1.61,1.88,3.47,3.32,6,2.42,2.79-1,3-3.67,2.91-6.14-.39-7,1.5-13.69,2.12-20.54A24.45,24.45,0,0,0,213,510.07a23.28,23.28,0,0,1,5.57,7.48c4.22,9.42,8.42,18.85,12.51,28.33a8.09,8.09,0,0,1,.39,5.22c-2.81-.19-5.06-1.92-7.56-2.9-5.88-2.3-11-1.65-15.24,3.07a29.09,29.09,0,0,1-8.89,6.22c-1.13-8.08-3.95-15.62-7.44-22.94A56.38,56.38,0,0,1,187.06,514.45Z"/>
    <path d="M372.2,748.08c-7.56.47-11.32,3.63-13.81,11.71-.36,1.17-.49,2.4-1.62,3.15-.48-5.52-2.47-10.26-6.84-13.93a14.75,14.75,0,0,1-5.18-9.94c-.77-6.71-.23-13.42,0-20.12a6.12,6.12,0,0,1,4.65-6.08c2.89-.84,5.57-.28,7.47,2.06,4.65,5.71,9.7,11.12,13.79,17.28C373.94,737.2,373.27,742.63,372.2,748.08Z"/>
    <path d="M162.15,252.15c-3-3.14-2-6.69-.87-10.13,1-3.21,3.63-5.65,4.36-9.08,1.5-7,1.44-7.16-5.41-7.61,3.32-1.86,4.7-4.44,4.14-8.43-.6-4.25,2.86-8.2,6.92-8.72,5-.63,10.43,2.74,11.16,6.95.6,3.44-.8,6-4,7.2-4.79,1.88-6.68,5-5.74,10.19,1.1,6-.8,11.08-6.38,14.27C164.19,248,163.51,250.34,162.15,252.15Z"/>
    <path d="M160.13,225.33a1.32,1.32,0,0,1-.75,1.67c-4.67,2.66-7.9,6.15-7,12.06.33,2.21-.93,3.54-2.76,4.5-7.32,3.87-9.33,9.81-6.2,17.5,1.16,2.84,1.59,5.86-1.14,8.25-3.83,3.37-3.14,8.1-3.81,12.42-6.28-1.91-7.23-5.86-2.49-10.32,4.46-4.2,4.57-4.73,2.08-10.63-1-2.31-1.67-4.65-.85-7.16,1.69-5.16,3.85-10.17,4.77-15.59.41-2.4,2.69-2.88,4.74-3.29,2.6-.51,3.52-2.38,3.84-4.7.28-2.16.08-3.64-2.57-4.67a4.62,4.62,0,0,1-2.44-6.53c1.05-2.33,3.14-2.47,5.24-2,2.9.69,3.87,2.61,3.39,5.56C153,229.73,158.32,224,160.13,225.33Z"/>
    <path d="M146.77,397.77c2.33-7.25,6.14-13.18,13.83-15.77a12.17,12.17,0,0,0,7.89-8.24,41.56,41.56,0,0,1,2.7-6.32c.81.91,1.58,1.87,2.45,2.72,5.23,5.12,2.37,11.3-2.8,14.59a61.57,61.57,0,0,1-5.9,3.6c-3.13,1.53-4.64,3.59-4.57,7.34.07,4.18-4,6.31-7.47,4.14C150.94,398.62,148.78,398.53,146.77,397.77Z"/>
    <path d="M164.46,398.76c0-3.68,2.19-5.92,5.78-5.94,4.41,0,8.14,3.37,8.16,7.45a5.76,5.76,0,0,1-5.88,6A7.74,7.74,0,0,1,164.46,398.76Z"/>
    <path d="M154.54,275c-1.89-3.61.17-6.54,1.74-9.47s3.43-5.83,5.16-8.74c.14,4.7.78,9.23,4.42,12.69,1.52,1.45,1,2.91.19,4.43-1,1.83-2.59,2.25-4.49,2.07C159.2,275.74,157,274.32,154.54,275Z"/>
    <path d="M178.17,418.58c3.8.23,4.2,2.82,4.15,5.55,0,2.5-.12,5.16-3.65,5.32-3,.13-6.41-3.09-6.09-6C172.94,420.08,175.55,419.16,178.17,418.58Z"/>
    <path d="M160.41,307.68c-2.35-6.6-4.19-13.28-3.59-20.39C164,293,162.31,300.34,160.41,307.68Z"/>
    <path d="M332.14,560.23c.92.25,1.78.55,1.47,1.8C332.57,561.88,332.32,561.08,332.14,560.23Z"/>
    <path d="M178.23,496.25a2.5,2.5,0,0,1-1.48-1.64C178,494.51,178.2,495.29,178.23,496.25Z"/>
  </g>
  <g class="svg-koi-accent">
    <path d="M78.07,507.66c1.07-8.18,3.91-15.16,12.29-18.48,6.86-.18,8-1,10-7.15.48-1.43,1-2.82,1.51-4.25,2.67-8,2.75-9.08-4.48-13.37-9.2-5.45-10.9-13.7-10.47-23.19l1.24-8.39c4.28-7.64,7-15.66,6-24.57a31.59,31.59,0,0,1,5.54-22.11c4.72-7,8.82-14.4,13.19-21.62,4.76-3.94,9.25-8.24,15.81-9.22,3.9-.59,7.6.66,11.43.57,5.59-.12,8.68-2.35,9.8-7.81a15.35,15.35,0,0,0-3.08-13.43,123.71,123.71,0,0,1-8.46-10.91c-.44-1.32-.88-2.64-1.31-4-1.2-6.25-1.25-12.61-1.73-18.93,1.08-6.36,1.15-12.88,3.08-19.1.67-4.32,0-9.05,3.81-12.42,2.73-2.39,2.3-5.41,1.14-8.25-3.13-7.69-1.12-13.63,6.2-17.5,1.83-1,3.09-2.29,2.76-4.5-.89-5.91,2.34-9.4,7-12.06a1.32,1.32,0,0,0,.75-1.67h.1c6.85.45,6.91.63,5.41,7.61-.73,3.43-3.34,5.87-4.36,9.08-1.1,3.44-2.14,7,.87,10.13-.24,1.55-.47,3.09-.71,4.63-1.73,2.91-3.56,5.76-5.16,8.74s-3.63,5.86-1.74,9.47c2.08,3.86,1.91,8.13,2.28,12.3-.6,7.11,1.24,13.79,3.59,20.39,8.13,13.54,17.24,45.31,11.75,56.67a94.34,94.34,0,0,0-2.71,9.4c-1,4-4.83,6.9-8.85,8.25-7.69,2.59-11.5,8.52-13.83,15.77-2.7,4.91-1.86,10.21-.94,15.21,1.8,9.68-1.05,17.37-8.46,23.58-2.21-.23-3.72,1.48-5.71,2-11.25,2.94-17,10.8-19.06,21.86-1.75,2.09-3.46,4.22-5.25,6.26s-2,4.3.09,6.16c4.93,4.41,5.64,10,5.23,16.16-.16,2.29-.55,4.78,1,6.77,2.23,2.85,1.41,5.32-.61,7.75-4.39,5.29-6,11.47-6.5,18.21-.86,11.8.59,22.65,10,31.19a32.74,32.74,0,0,1,5.71,7.47c2.48,4.15,1.66,8.9-1.64,12.46a17.74,17.74,0,0,1-6.6,4c-4.92.86-8-2.36-11.25-5.13-7.61-10.87-13.11-22.84-18.17-35a23.2,23.2,0,0,0-3.32-6c-2.62-3.23-5.19-10.82-4.5-14.79"/>
    <path d="M189.83,745.85c.88.77,2.74,1.1,1.7,3s-2.43,1.07-3.84.57c-5.37-1.92-88.8-68.63-130.38-226.22C10,347.81,96.81,216.63,147.08,175.67c10.17-9.89,32.52-27.39,58.16-48.8C250.83,44.28,373.57-1.2,382.55,0c-30.95,13-65.36,24.15-128.19,76.73-37.83,38.83-67.54,105.42-68.9,108.07a14,14,0,0,1-.59-9.16c2.11-9.28,15-28.94,13.82-30.17C196.3,141.61,146,191.22,136.53,203,70.57,281.73-25,516.48,189.83,745.85Z"/>
    <path d="M370.24,68.36c-1.17-2.55-24.91-1.67-46.35,10.51,1.72-4.11,5.33-7.87,8.6-9.08,6.91-2.57,64.81-24.27,69.13-15.62-1,8.64-30.61,16.41-120.7,89.55C243.72,176.4,224.8,202,223.3,220.56c-1,11.88-10.76,49.61-6.73,137.84,9.47,94.22,30.26,128.29,43.8,160.75,21.69,52,68.82,111.69,61.41,114.23C316.3,635.25,269,563,259.6,545.93c-9.53-17.72-21.78-50.91-31.28-74.69C220.22,451,204,379.93,204,333.93c-2.09-43.29,3.63-114.25,8-128.18,2.65-12,12.7-26.42,14.63-26,2.52.53-.78,8.63,1.34,9,3.44.45,20.32-25.38,41.84-43.21C272.26,143.49,346.66,80.24,370.24,68.36Z"/>
    <path d="M176.84,675.91c3.76-5,1.07-9.85-.81-14.32-3.19-7.57-6.57-15-7.19-23.32-.41-5.51-1.23-11-3.54-15.94A51.7,51.7,0,0,1,160.36,603c-.22-3.95-2.77-7.3-4.61-10.79-4.26-8-5.95-16.92-8.4-25.55-1.27-4.46-2.7-8.87-3.86-13.35-1.22-4.71.25-10,3.16-11,4.65-1.57,7,2,9.36,4.89,2.78,3.41,3.44,7.87,5.58,11.61,1.38,3.56,2.79,7.11,4.15,10.68,2.77,7.23,7.41,13.78,7.94,21.82a30.14,30.14,0,0,0,5.38,14.84,82.91,82.91,0,0,0,28.34,26.89c9.16,5.27,14.68,13.45,18.24,23.41,3.38,9.45,4.72,18.43-1,27.37-.07.12-.1.26-.16.38-2,4-1,7.25,2.22,10.26,5.09,4.74,10.24,9.38,14.91,14.63,5.22,5.87,6.33,11.8,4.18,18.87-.55,1.82-1.18,3.61-1.78,5.42l-3.23,5.65c-3.43,2.43-6.62,5.21-10.94,6.14a18.61,18.61,0,0,1-11.15-.56A34.64,34.64,0,0,1,207.53,738c-9.05-8.5-18.38-16.71-27.13-25.5-9.15-9.19-13.44-19.83-4.55-33.15C176.5,678.35,177.33,677.28,176.84,675.91Z"/>
    <path d="M141.13,769.8c-.81,1.23-5.16,2.93-7.36,3.66-8.54,2.84-37.61.58-62-8-16.81-5.89-46.42-15.49-63-36-11.35-13.71-10-33.11-5.37-41.36,2.92-5.2,8.66-8.29,14.72-9.76,8-1.94,16.13-1.81,24.31-.61,15.21,2.25,27.71,8,41.29,16.79A166.14,166.14,0,0,1,104.07,710c3.92,3.58,11,11.07,12.62,18.41-5.68-4.64-33.21-27.64-66.1-37.52-8.71-2.86-15.93-4.23-28.05-2.47-8.25,1.59-12.15,5.82-11.73,16.41,3.73,32.3,33.73,41,48.2,48.53,25.94,9,28.94,12,61.81,16.06C131.27,770.44,137.21,769.8,141.13,769.8Z"/>
    <path d="M282.43,674.41c-.21-5.92-2.82-10.94-6.15-15.6-1.9-2.65-4.1-5.09-6.25-7.55-2.94-3.37-4-7.11-2.34-11.34,1.54-3.87,5.06-4.64,8.67-5.17.67-.1,1.33-.28,2-.42,5.54,2.81,11,5.86,16.64,8.37,8.36,3.71,15,9.46,21.18,16,2.88,3.08,5.82,5.75,6.86,10.35,1.82,8,7.71,14.4,9.81,22.45a27.86,27.86,0,0,1,.36,12c-.48,2.68-2.07,5.45-5.92,5.79-4.46.38-8.9.73-13.37.69a34.7,34.7,0,0,1-14.72-12.6C295.44,688.41,286.36,683.29,282.43,674.41Z"/>
    <path d="M235.46,594.37c-5.64-1.94-11.45-.43-14.66,3.86-1.64,2.19-1.94,4.33,1,5.61,3.91,1.73,5.13,5,4.44,8.68-1.05,5.58-.22,10.49,3.27,15a10.76,10.76,0,0,1,1.71,4.12,2.92,2.92,0,0,1-2.22,3.47c-1.35.44-2.19-.45-2.76-1.78s-1.4-2.44-1.32-3.83c.32-5-2.42-8.41-5.92-11.47s-5.54-6.5-2.78-11.39a5.12,5.12,0,0,0-1.62-6.94,13.12,13.12,0,0,1-5.21-8.46c-.74-3.9-3.72-6.42-6-9.4-1.1-4.84-4-8.89-5.93-13.36-2.41-5.5-1.94-7.5,2.31-11a29.09,29.09,0,0,0,8.89-6.22c4.25-4.72,9.36-5.37,15.24-3.07,2.5,1,4.75,2.71,7.56,2.9,6.61,4,12,9.33,17.13,15s4.25,17.13-1.84,22C243.26,590.88,239.33,592.47,235.46,594.37Z"/>
    <path d="M176.74,494.6c1.14-2.81-1.12-4.94-1.78-7.29a45.94,45.94,0,0,1-1.32-14.13c.16-5.27,1-10.63-1-15.78-.24-1.88-.47-3.75-.73-5.62a12.5,12.5,0,0,1,2-9c4.53-6.64,11.13-7.38,16.27.49,2.32,3.56,3.26,7.72,3.68,12.08a15.54,15.54,0,0,0,4.29,8.72c2.22,2.46,4.25,5,5.26,8.42,2.57,8.7,4.09,17.4,2.5,26.45-.62,6.85-2.51,13.57-2.12,20.54.13,2.47-.12,5.14-2.91,6.14-2.5.9-4.36-.54-6-2.42-2.53-3-5.18-5.83-7.78-8.74-2.26-6.4-4.59-12.76-8.83-18.2,0-1-.27-1.74-1.48-1.64Z"/>
    <path d="M378.55,490.58c2.75,17.64,6.46,39.27-19.54,89.81-2.3,3.62-23.42,37.27-23.4,34.71.12-11.23,14.11-38.93,19.05-48.64,24.53-54.84,4.35-106.24,11.76-108.29C370.19,457.42,374.6,472.05,378.55,490.58Z"/>
    <path d="M239.78,148.79c-7.2-12.21-6.27-19.75,3.63-30.49,6.86-7.46,15.65-12.44,23.62-18.47a7.77,7.77,0,0,1,8.53-.45c2.6,1.41,2.95,4.44,2.78,7.25a16.36,16.36,0,0,1-1.71,6.67,38.61,38.61,0,0,0-3.79,13.23c-2.09,5.94-4.6,11.77-8.8,16.45C257.79,149.92,251,154.81,239.78,148.79Z"/>
    <path d="M307.12,563c-6.78-10.71-9-13.73-10.58-35.14-1.31-23.36,10.65-72.59,31.76-81,9.15-3.76,29.8,6.53,30.62,8.91.63,1.82-.87,3.77-5,2.48-15.85-4.77-28.18-1.71-35.62,15.23-4.88,11.9-13.13,34.82-14.47,44.56C302.83,522.94,299.42,532,307.12,563Z"/>
    <path d="M360.54,654c4.31-2.53,16.1,14,20.86,21.46,17.88,28,30.52,65.38,34.76,78.43,1,3.09,4.23,12.34.61,13.72C413,768.89,408,743.18,391.14,707,374.64,673,357,656.05,360.54,654Z"/>
    <path d="M296.07,832.64c-34.83-11-39.59-12.59-70.3-40.39-3.17-4.06-4-5.73-1.83-7.69,1.09-1,14.36,9.56,20.72,14,25.06,21,43.06,23.65,70.88,30,10.79,2.23,20,4,20,7.77C335.53,842.55,312.42,836.75,296.07,832.64Z"/>
    <path d="M361.4,787.65c-5-7-6.49-14.68-4.91-23,.09-.55.19-1.11.28-1.66,1.13-.75,1.26-2,1.62-3.15,2.49-8.08,6.25-11.24,13.81-11.71,5.21,4,9.49,8.23,11,15.27,1.33,6.16-.53,11.19-2.63,16.41a40.46,40.46,0,0,1-3.83,6.52C373,792.17,366.17,792.76,361.4,787.65Z"/>
    <path d="M310.11,69c4.17-6.76,56.3-49.93,62.71-51.63-2.31,2.88-2.61,6.13-5.64,8.08-19,12.53-23.79,22.24-26.15,25.77C329.19,61.4,314,70.35,310.11,69Z"/>
    <path d="M328,567.28c-1.66-6.51-3.55-11.66-.32-18.28,1.21-2.49.25-5.46-1.08-8.24-2-4.25-.34-8.37,3.63-10.35,2.82-1.4,6.47-.07,8.42,3a5.77,5.77,0,0,1,.29,6.23c-2.35,3.65-2.24,7.16-1.35,11.26,1.23,5.65.18,11.41-1.53,16.89-1.27,3.53-5.18,2.6-5.18,2.6C329.68,570.29,328.17,567.84,328,567.28Z"/>
    <path d="M417.33,799.52c1.59,1.32-1,4.14-2.37,5.25-9.6,7.81-17.92,15.15-30.48,21.08-3.86,2.06-12.91,4.49-13.65,2.76-1.37-3.24,4.73-4.69,6.83-5.92a169.7,169.7,0,0,0,33.08-20.76C412.13,800.93,415.57,798.58,417.33,799.52Z"/>
    <path d="M32.42,716.89a7,7,0,0,1-7.06-7c.05-4,3-7,6.71-6.79a7.4,7.4,0,0,1,7.29,7.37C39.31,714.36,36.48,717,32.42,716.89Z"/>
    <path d="M287.43,729.41c3.8-.48,7.09,1.06,10.38,2.62,11.7,6.22,17.12,17.76,23.77,28.22,1.15,1.8.48,3.78-1.11,5.18s-3.15,3.29-5.3,1.92c-11.48-7.31-24.25-13.19-30.27-26.73C283,736.45,283.78,732.67,287.43,729.41Z"/>
    <path d="M336.35,516.5c2.83-.19,4.09,1.45,4.15,4.17a5.6,5.6,0,0,1-5.39,5.83c-3.59,0-4.12-2.57-4.16-5.28C330.91,518.12,332.92,516.43,336.35,516.5Z"/>
  </g>
</svg>
