<svg class="svg svg-monstera" xmlns="http://www.w3.org/2000/svg" viewBox="0 0 992.24 910.11">
  <g class="svg-monstera-primary">
    <path class="cls-1" d="M509.89,1019.08c-8.83-19.67-12.42-33.37-18.54-100.06,0-52.84,2.89-150.11,6.77-150,1.85.12-1.9,7.81,77.43,47.31,203.33,96.34,360,162.75,558.76,114.69,32.72-13.38,26.08-48.09,21.76-53.25-21.49-23-203.45-20.45-210.1-20.74-146.87,4.17-174.29-3.59-246.82-16.57-4.25-1-129-28.44-180.27-84.36-5-5.9-5.07-13.35-5.72-20.31-2.66-28.6,1.16-57,2.38-85.55,1.36-31.69,8.91-62.16,14.52-93,2.44-13.4,6.32-26.53,4.89-40.37a6.73,6.73,0,0,1,.43-2.11c.83.23,1.9.21,2.44.74a39.12,39.12,0,0,1,4.56,5.07c8.58,11.7,19.24,21.18,30.32,30.51,22.86,19.25,48.37,34.36,74.72,47.72,36.42,18.49,73.18,36.42,111.77,50.27,56.45,20.25,112.48,41.57,171.59,53.5,24.13,4.87,48,9.06,72.58,5.88,10.79-1.4,20.93-7.7,22.88-17,5.81-47-328.06-86.51-435.36-229.8-50.12-84,31.46-94.68,109.41-177.89,116.12-129.29,68-145.11,96-164.7,7.3-3,18,17.7,50.35,25.64,22.56,5.29,93.65,1.89,162.48-29.5,11.06-3.79,27.17,27.74,67,151.44,8,25.78,15.94,51.58,23.37,77.52,4.35,15.21,7.66,30.71,11.42,46.08a19.73,19.73,0,0,0,4.41,9.06c2.44,2.63,4.77,6.44,8.79,4.54,3.73-1.76,3.23-6.12,2.93-9.67-.62-7.33-1.51-14.64-2.29-22,.94.47-40.83-211.27-76.84-258.56,4.73-3.62,33.78-13.65,99.19,14.35,24.28,7.06,46.35.7,78,11.39,36.6,22.07,55.42,164.84,50.33,258.73-2.43,29.36-43.62,313.94,15.91,287.29,11.06-7.08,24.47-178.77,22-178.81,15.15-150.13,10.09-339.07-25.32-379.78,12.23-.47,41.18,27.68,86.13,41.6,28.46,9.7,67.28,21.81,95.79,70.52,47,186.71-44,546.45-29.37,579.77,5.18,10.91,17.13,11.61,29.37,2.16q0,96.8-.07,193.59c0,1.48-.07,4.56-.07,4.56H509.89Z" transform="translate(-491.35 -108.97)"/>
  </g>
  <g class="svg-monstera-accent">
    <path class="cls-2" d="M918.41,851.35c-320.12-2.82-390.35-102.82-390.35-102.82C511.82,663.59,543.51,551,546.15,552c6,2.21,45.44,61,43.13,40.64-2.28-8.54,1.6-20.17,4-19.27,8.93,15,161.24,85.14,184.22,93.74,5.69,2.12,89.88,41,227.46,55.51,9.32-.33,58.91-4.33,66.62-2,8,2.39,57.47,45.35,59.32,46.87,5.64,4.63,40.66-1,51.75,3.51,1.19.48,3,.52,3,2.12s-1.73,1.9-3,2.1c-292.81,16.88-427.42-27.38-430.4-24.07-1,1.14-3.36,2.27-2.16,4.11,1,1.57,117.87,46,460.3,36.47,1-.14,2.54,1.55,3.48,2.67,17.27,20.67,35,41,51.58,62.19,19.38,24.76,115,127.5,113.78,130.32-32,17.07-144.56,30.11-209.85,32.21H904c-212.45-3.73-264.8-32-271-30.76-15.76,2.8,8.15,29.09,8,30.76H516.87C495,955.41,501.27,878.2,501,870.67c-.06-1.7-1-4.47,1.54-4.78S557.9,890.1,565,894.37c1.92,1.16,5.08-72.81,4.79-74.27-.2-1-1.91-1.88-.74-2.88.49-.41,2.34,0,3,.69,3.7,3.78,47.94,22.45,65.41,29.86C652.21,854,834.67,972.58,839.49,974c2.77,1.24,4.32-1.11,2.38-3.31-3.87-2.94-23.38-35.43-27.82-41.13-1.66-2.42-3.38-3.16-2.13-4.27s1.56.84,5.08,1.91c125.24,44.84,205.93,33.5,207,39.68.34,5.34-34.07,2.16-34.11,7.6.48,9.21,36.22,31.09,166.81,30,52.94-1.06,165.17-20.12,171.79-38.37.58-1.61-46.15-59.22-146.73-76.69-13.59-7.59-8.65-23.47-32.83-33.53C1068.41,831.76,977.74,850.78,918.41,851.35Z" transform="translate(-491.35 -108.97)"/>
    <path class="cls-2" d="M1434.41,1016.84c-5.82-4.63-7.47-6.91-12.56-10.61-6.14-4.47-65.09-57.47-82.38-88.17-2.12-20.47,40-10.24,29.07-76.95-.2-6.17,2.8-19,5.64-23.64,13.64-10.12,32.53,37.18,62.88,27.53,23.86-7.51,29.09,6.1,29.09,16.41,0,58.23,2.31,97.6,2.36,155.83C1457.13,1017.24,1445.8,1016.84,1434.41,1016.84Z" transform="translate(-491.35 -108.97)"/>
    <path class="cls-2" d="M1092.68,364.65c3.37,21.6,7.61,85.06,67.31,138.27,1.57,1.13-23.58,156.13-28.62,149.21-6.83-9.37-205.06-303.09-213.85-319.66-6.57-12.38-54.61-84.65-60.34-88-11.77-4.47-14.47-10.68-17-7.23-1.81,2.09,41,75.15,41.32,76.94.3,1.46,165.83,267.37,165.18,269.64-148.39,14.79-323.53-112.94-332.78-94-3.69,8.83,70.42,34.94,69.25,41.53-1.41,8.65-27.53-3.06-36.94,1.65-17.42,7,38.35,28.24,78.82,44.94,23.76,8.94,83.41,39.3,247.22,51.39,7,4.61,27.88,36.63,27,37.47,5.18,3.93-169.52-32.62-232.94-53.06-68.23-22.5-200.35-83.56-209.53-99.56,6.59-7.3,15.77-4.47,24.24-19.06,5.88-18.36-24.47-156.47-3.6-170.5,24-8.33,103-81.38,118.33-144.06,7.09-6.68,31.09,37.09,50,29.61,2-1,2.62-26.58-28.78-33.85-8-2.32-6.89-22.56,5.07-31.43,30.86,22.92,79.1,24.93,146.16,1.64,1.31,2.6,3.88,103.59,36.46,135.65,24.77,27.41,8.71,90.23,17.12,90.38,13.48-1.56,18.77-41.8,7.12-95.09-7.5-26.8-35.64-110.73-26.65-119.15C1020.41,142.65,1068.06,263.35,1092.68,364.65Z" transform="translate(-491.35 -108.97)"/>
    <path class="cls-2" d="M1277.71,702.41c7.88,2.59,68.11,22.83,77.91,41.35,2.84,5.37,9.38,27.12-4.18,43.54-22.89,25.23-15.6,57.34-17,64.09-1.54,7.1-2.1,47.26-12.39,50.1-.4-.57-30.83-40.37-29.12-42.25,6.15-6.77,8.74-25.21,9.09-32.7.14-3-5-4.47-8-4s-4.11,19-4.85,22.61c-1.27,6.11-5.52,7.23-5.52,7.23-4.41-5.82-89.94-102.35-125.37-165.46-4-5.46,28.6-199.2,35.64-290.41,1.33-17.15,7.71-174.45-31-166.62-11.76,2.37-32.94,27.32-35.41,67.42-.61,10,5.14,73.32,4.82,72.37-23.53-72-10.35-133-19.76-159.06-2.06-6.39-17.61-49.7-18.46-58.89-1.42-15.58,52.32-.37,62,3.85s5.47,26.33,53.12,9.25c12.52-5.8,48.24,86.26,50.25,90,38,113.36-23.2,228.71-16.13,310.92C1243.48,569.25,1248.88,691.94,1277.71,702.41Z" transform="translate(-491.35 -108.97)"/>
    <path class="cls-2" d="M1441.76,673.09c-5.7-.56,15.24-215.85.91-223.59-20-6.38-13,119.26-34.3,117.23-26.07-4.4-1.72-204.26-12.08-204.38-13-.29-7,95.36-28.35,101.36-12.82,2.23-34.7-25.65-32.35-41.18,17.29-115.77-13.65-243.88-1.65-246.71,18.59-2.11,21.41,60.47,75.77,46.12,19.53-5.65,49.17,55.06,59,135.44C1473.94,426.11,1453.65,673.59,1441.76,673.09Z" transform="translate(-491.35 -108.97)"/>
    <path class="cls-2" d="M1332.52,499.87c7.42-1.93,10.26,13.28,16.76,14.2,6.14.88,1.66,16.64,29,40.64,6.36,7.76-9.88,37.58.81,63.59,0,10-27.51,24.35-11.63,67.05,0,1.33-4.15.92-5.08.85-3.11-.26-18.21-22.49-12-33,9.32-16.13-7.77-38.69-24.29-47.09a11.92,11.92,0,0,1-6.3-9.54C1316,556.36,1316.76,502.35,1332.52,499.87Z" transform="translate(-491.35 -108.97)"/>
  </g>
</svg>
