<svg class="svg svg-name" xmlns="http://www.w3.org/2000/svg" viewBox="0 0 885.9 660.31">
  <path class="cls-1" d="M894.18,575s-62.84-9.09-67.42-9.65c-42.47-5.17-52.11,35.24-51.51,38.7.36,2.05-2-2.13-2-3.78,0-3.29,4.22-38.57,40.89-42,5.06-.47,78.25,11.39,81.65,11.19,0,0,14.64-47.63,16.58-51.07,5.65-10,16.77-40.29,37.44-42.71,48.56-6.94,28.8,57.06,8.62,79-11.12,12.7-26.35,20.7-58.18,21.35,0,0-6.94,22.94-8.94,55.29-2.59,48-1.79,56.94,9.15,86.68-2.69-9.88-5.7-29.4-5.14-36.94-1.68-49.1,29.64-53.81,35.88-54.44,29.7,2.53,28.76,41.88,26.61,57.58-6.73,105,.32,109.15,6.25,109.7,12.66,1.31,44-125.28,45.14-128.69,17.17-43.3,43-30.42,47.81-27.54,4.55,2.72,13.48,11.89,16.09,25.49a211,211,0,0,1,7.65-29.18c.5-.64,4.43,4.28,4.5,5.83-.44,2.78-8.42,30.4-10.48,40.53-2.25,11.1-2.25,34.22,5.34,38.81,6.17,1.32,20-21.12,32.14-45,1.33-1.48,14.24-28.21,16-31.84,4.86-10.16,11.09-21.1,27.58-21,33.89.13,23.66,44.41,20.09,50.36-1.72,0-2.16-2.5-2.25-3.38-.15-1.33,3.55-20,.14-29.17-6.41-17.52-27.89-10.86-29.08-9.58-17.12,10.23-16.89,39.76-16.68,43.35.82,36.36,19.18,54.59,31,56.53,20.7-.88,37.78-58.54,40.89-65.68-3.72-53.26,14-118.47,14-118.47-74.88,18.45-101.53,53.39-105.94,74.21a53.6,53.6,0,0,0-1.41,13.18c-2.94-1.41-5.12-5.53-5.07-7,.2-4.82,2.85-14,6.73-24.38,6.81-16.06,43.52-47.3,107.23-62.3a269.12,269.12,0,0,1,12.87-39.88c3.89-10.77,22.12-32.94,49.9-40.48,22.81-3.76,27,19.07,5.4,44.63-14,21.53-33.33,33.26-62.62,40.41-8.21,36.26-16.91,66.26-14.61,124.71,0,0,31.33-26.58,30.14-48,1.17.33,4.93,7.45,5.3,8.4,0,4.43-3.71,12.69-5.65,16-5.47,10.06-22.41,26.39-22.41,26.39s18.79-4.06,36.44,28.41c3.06,7.08,22.33,51.88,24.37,58.08,20.1,47.27,33.6,61,60.16,69.33,29.82,8.29,38-44,38.71-45.9a57.78,57.78,0,0,0,3.9,4.52c1.24,2-.75,11-1.76,15.26-9.35,36.27-31.68,36.58-41.74,34.77-32.2-5.95-44.58-23.59-66.47-75.36-16-32.47-25.88-74.82-46.35-82.35-9.76-3.18-14,.74-14,.74s3.46,33.79,13.41,44.9c.91,1-7.82-1-9-3.05-2.47-4.5-6.65-7.79-9.9-41.21-1.43,4.27-10.9,23.88-13.44,29.82s-12.78,26.62-29.81,26.8c-22-1.68-38-38.47-36.66-65.87-3.64,5.34-28.1,56.52-42.22,55.64-7.23-1-13.12-20.65-11.38-40.31-5.3,19-47.77,65.36-58.88,19.37-.77-4.16-.77-7.87-1.94-12.62-7.48,28.79-24.59,109.56-45.06,108.38-8.92-.22-22.29-22.88-10.59-120.18,1-8.1.53-42.88-16.77-46.41-25.41-3.88-33.88,25.06-34.06,40.15-.11,10,6.27,49.37,7.86,55.23-1.07,1.19-10-1.44-10.59-1.76-2.1-1.17-7.77-20-7.77-20s-.61,92.82-26.67,93.71c-13.12.44-23.88-21.89-26.35-53.65-1.93-24.74,10.47-104.19,11.64-110.82.33-1.88.92-6.29,1.37-9.88a7.29,7.29,0,0,0-4.17-7.54,94.56,94.56,0,0,0-11.47-4.72c-1.26,4.41-3.33,34.47-4.61,40.9-1.55,7.87-13.06,79.44-28.59,80.56-19.59.17-15.8-72.11-14.51-89.29-1.42,3.75-14.31,75.52-43.69,70.07-19.8-4.66-21.19-39.88-21.45-43.72,0,0-7.88,42.23-30.27,42.9-5,.33-17.84-4.55-22.44-25-.61-2-4-14.65-4-14.65s-2.12,14.24-8.9,20.69c-9.92,9.78-22.63,11-33.1,8.84-26.35-5.65-19.88-55.53-16.47-67.18,3-10.49,11.41-20.82,24.59-22.23,29.51-2.94,33,28.08,33,28.08,3.43-42.93,18.38-89.13,19.31-91.89,0,0-9.82,4.75-20.41,8.51-17.73,7.38-22.35,7.65-55.41,25.83-21.71,12.53-28.25,24.57-29.88,28.54a41.05,41.05,0,0,0-2.89,9.63c-.73,3.47-1.67,4.51-2.81,5.11-2.83,1.47-3.53-17.11,14.41-36.21,11.46-10.6,41.46-26.84,65.82-36.78,6.11-2.71,32.73-12.47,32.73-12.47s3.35-11.63,3.91-13.29c2.35-7,4-13.88,8.47-22.36,13.65-24.47,27.3-38.23,39.41-43.64,9.06-3.77,16.59-7.27,24.94,2,4.59,4.82-.06,20.51-1.52,24.48-5,13.6-23,30.23-28,34.46-14.59,10.23-41.58,24.16-41.58,24.16S678,597.85,676.47,605.44c-2.12,8.12-4.86,42.12-4.94,50.3-.18,32.64,11.12,53.47,21.35,53.11,12,.36,24.88-43.94,27.11-50.47,1.36-4,5.68-27.5,6.61-31.87.7-3.48,5.87,4.57,5.28,5.75-1.47,3-3.25,18.21-3.54,21.16-2.22,22.79,2,54.79,17.4,57.75,14.61,1.62,28.17-39.74,29.38-43.43,0,0,5.71-22.87,8.45-32.57,1-3.93,6.78,2,7.85,5.42-1.94,64.07,1.29,81.85,9.82,85.2,9,2.1,20.29-63.07,21.58-70.64.56-3.25,4.18-44.5,4.18-44.5-11-6.53-16.29-11.82-17.47-14.06-5.06-9.59-2-17,.06-18.83,9.29-7.92,20.52,3,23.76,7.74,3,4.32,3.2,14.15,3,20.78,4,1.56,10.22,4.14,15.2,6.22a10.22,10.22,0,0,1,6.2,10.81c-2.48,18.22-8.59,71.08-9.69,78.4-9.25,61.52,10.35,92.15,15.94,92.06,8.53-.12,22.43-38,19.29-109.36-.25-5.7.45-44.09.84-47.87C889,588.64,894.18,575,894.18,575Zm-243,116.82c9.17-10.94,9.73-27.6,9.09-37.5-1.77-27.17-27.18-42-42.71-22.47-7.71,9.89-10.12,48.59-1.06,60.36C627.88,704.91,644.21,699.12,651.15,691.82ZM921.24,516.06c-9.89,20.12-19,51.51-19.21,53.94,0,0,21.37,1.88,36.15-7.53,23.71-12.55,40.58-53.23,36.11-68.65C967.71,479.82,943.65,468.76,921.24,516.06Zm133.88,128c-18.71-14.32-35.77,11.68-40.36,24.26-6.82,19.65,1.06,50,11.3,50,9.18,0,33.82-17.62,39.59-42.88C1068.65,663.47,1060.88,647.59,1055.12,644Zm236.35-172.32c0-13.48-23.29-6.36-30.59-.59-28.13,22.23-29.88,38.12-38.82,66.33,5.09-1.14,27.39-5.8,43.56-21.3C1267.69,514,1292.53,488.76,1291.47,471.71ZM692.94,542.44c1.2-1.33,25-14.34,28.94-17.29,16.12-12.24,24.83-19.55,31.53-33.89,2.14-5.36,6.35-20.82-2.15-22.26-10.41-1.76-18.45,6.64-20.67,9a151.69,151.69,0,0,0-32,48.13C697.64,528.62,693.75,539.5,692.94,542.44ZM815.5,580.88c-7,2.88-.54,13,2.85,15.38a72.63,72.63,0,0,0,9.76,6.84c1.27-8.25,2-11.25-1.64-16.23C824.34,584,820.12,580.35,815.5,580.88Z" transform="translate(-491.82 -175.91)"/>
  <path class="cls-2" d="M763.33,382.85a1.17,1.17,0,0,0-2.29-.11c-2.51,10.45-7.91,31.51-27.27,36.56-27.62,7.21-34.06-20.86-35.84-26.34-1-3.14-2.31-8.68-3-11.9-2.38,7.85-14.19,31.52-22.44,31.62-6.65.07-17.53-23.59-20-33.21-.31-1.19-5.06,50.87-8.82,81.12-1.39,11.19-9.48,32-19.77,31.94-18.27-.14-31.5-65.36-32.7-71.47-9-45.56,10.82-87.53-8.83-88.47-13.35-.64-16.76,34.19-19.72,39.88-1.16,2.24-2.63,2.64-5,2.06-2.2-.54-5.77-1-6.14-4.35-.34-3.1-.31-24.53-.92-31.47s-1.8-23.56-12.85-22.95c-7.39.41-15.68,10.06-19.74,31.42-2.49,16.15,4,58.66,4.91,62.6a3.8,3.8,0,0,1-3.28,4.6l-.73.08-.91.12a6.51,6.51,0,0,1-6.66-3.44c-5.54-10.64-19.51-41-19.51-77.47,0-23.76,6.66-40.4,9-45.53a2.58,2.58,0,0,1,2.59-1.5l.61.06h0a2.42,2.42,0,0,1,2.16,3.19c-2.59,7.78-8.65,30-4.79,59.23a281.48,281.48,0,0,0,7.76,35,1.17,1.17,0,0,0,2.27-.53,130.3,130.3,0,0,1-1.67-24.25c-.62-13,8.05-48.93,26.46-50.07s21.23,29,21.82,46a1.16,1.16,0,0,0,2.3.2c2.63-12.66,7.88-29.78,21.86-30.38a15.21,15.21,0,0,1,9.37,2.23c15.37,10.26,1.93,42.56,7.6,88.7,3.63,25.29,14.47,66,26.29,65.82,3.92-.05,10.92-22.9,11.77-31.17,4.41-43.41,4.75-43.43,7.47-74,.39-4.42,2.33-29.83,2.73-35.08a1.15,1.15,0,0,1,1-1.06l3.13-.39,2.58-.31a1.17,1.17,0,0,1,1.31,1.21,110.92,110.92,0,0,0,1.4,22.66c5,29.44,13.28,38.09,16.24,38.2,2.4.1,12.44-13.23,18.7-35.35,2.4-8.46,4.95-22.27,17-35.37,9.8-10.63,44.06-5.57,30.31,32-.67,1.84-4.72-5.77-4.48-6.91,2.94-14.11-8.84-32.86-21-21.34-10.07,9.58-12.64,25.35-12.93,32.87-.23,6.12,3.88,23.36,5.53,28.24,1.87,5.5,5.65,11.53,13.06,14.7,4.39,1.88,18.77,3.12,28.52-13.48,3.46-5.88,5.33-12.54,8-18.81,1.62-3.85,11.21-49.67,11.56-54.32.22-2.93,6.53-29.84,8-35.93a1.15,1.15,0,0,0-.95-1.41c-8.43-1.32-43.51-10-53.36-10-28.65-1.7-37.46,33.57-26.68,46-23.58-7.76-3.58-42.11,9.77-48.67,7.7-4.26,13.76-4.41,57.05,4.33a107.7,107.7,0,0,0,15.12,2.15,1.18,1.18,0,0,0,1.19-.82c2.28-7.34,12.3-35.64,15.93-43.07,3.5-7.19,13.21-30.37,29.12-45.18,35.82-33.35,54.63-3.65,57.34,1.25,5.07,11.75-6.19,38.51-7.66,41.08C860.18,255.06,846,274,825.76,282.41c-10.51,4.39-36.82,5-42.08,5a1.16,1.16,0,0,0-1.12.92c-1.75,8.1-11.95,53.47-13,62a124,124,0,0,0-.2,26.71,1.17,1.17,0,0,0,2.32,0c1.86-21,5.77-33.68,6.07-34.63,0,0,0-.07,0-.11,4.89-11.36,9.78-13.66,11.87-14.9,26.19-15.58,34,25.72,30.81,44.84-.94,5.67-9.79,74.87-9.41,83.1,1.91,39.25,26.32,48.4,29.91,48.31,9.87-.27,19.46-29.46,20.74-35.33.9-4.13,11.51-51.66,13.33-61,3.28-16.74,3.09-23.36,3.34-41.9.24-17.23,14-30.28,29.27-29.44,4.31.24,9.76,4.1,9.94,8.27,1.06,24.71-8.91,38.91-20.3,45.18a77.89,77.89,0,0,1-9.83,4.77,1.16,1.16,0,0,0-.73,1.35c.86,3.65,4.07,14.28,7.42,16.06,16.8,8.91,27.18-2.76,30.3-5.37,10.87-9.1,30.63-56.84,33.52-63.5,2.53-5.84,8.31-26.53,9.51-30.44,1.9-6.18,18.55-53.22,21.53-58.24s10.54-22,19.72-20.1c11,2.29,10.49,21.38,10.11,26.83-1.46,21.35-20.93,54.11-30.07,65.4-1.78,2.2-22.26,26.25-24.93,29.37a1.19,1.19,0,0,0-.27.79c.06,2.06.3,10.8.67,15.26,2.38,28.82,10.11,35.79,16.61,38.64,17.18,7.53,34.41-15.7,49.24-39.53,2.62-4.21,8.64-18.7,10.76-28.7.94-4.42,10.71-50.65,36-84.94,2.09-2.93,10.77-14.21,26-11.39,8,1.47,14.21,7.57,11.61,28.42l0,.16c-12.74,51.13-67.27,79.43-67.89,82-1.88,7.94-5.68,40-1.32,52.84,1.9,5.59,4.54,17,14.58,19.64,5.77,1.53,14.48-3.74,17.94-8.12,4.16-5.29,14.21-19.76,18.74-31.33,1.77-4.52,3.63-9,5.66-13.21,1.44-3,6.23-27.42,11.25-34.34,8.06-11.12,15.3-14.59,26.06-10.88,8.53,2.94,8.88,14.92,6.15,22.18-2,5.38-10.86,23.82-25.41,28.58-2.46.81-7.43,1.07-10.59,1.38a1.15,1.15,0,0,0-1,1c-1,9-1,24.28.47,28.54,4.26,12.11,15.17,15.77,19.43,15.24,8.13-1,18.4-12.15,21.17-16,12.1-16.85,16.43-27.88,32.43-35.84,4.22-2.1,9.34-4.23,14.53-1.18,1,.6-1.87,6.7-4.25,5.79-6.46-2.44-12.3,2.1-16.13,5.55-8.12,7.33-15.79,20.82-18.11,23.82-3.71,4.81-16.57,24.27-29.45,24.36-14.86.1-22.77-8.12-25.78-17a57.16,57.16,0,0,1-2.61-17.08,1.17,1.17,0,0,0-2.22-.46c-4,8.34-12.31,20.29-15.72,25-1.81,2.5-11.11,13.74-27,9.56-4-1.06-20.51-11.35-18.72-47.18.15-2.94.32-5.84.46-8.8a1.17,1.17,0,0,0-2.15-.69c-7,11-27.69,45.19-49.86,42.7-16.4-1.84-23.58-19.75-25.5-26.21-2.92-9.8-2.34-18.85-2.83-28.51a1.17,1.17,0,0,0-2.24-.41c-5,11.83-16.38,37.51-24.56,46.41-.78.85-15.93,14.63-35.47,7.44-5.15-1.89-8.53-5.93-10.81-11.27a1.16,1.16,0,0,0-2.21.18c-3,13.37-12.68,57.54-14.35,62.24-2.36,6.63-8,40.28-25.92,41.33-4.16.24-37.64-11.88-36.15-57.28.33-10.82,9.21-85.3,9.33-88.73.26-7-2.89-31.43-10.59-33.75-4.65-1.4-11.84,1.44-15,5.27-10.64,12.85-12.48,42.89-13,53.55-.36,7.51.3,12.93.53,20.12.25,2-6.46,4.3-9.76,1.75a1.12,1.12,0,0,1-.4-.76C765.6,406.47,764.47,391,763.33,382.85Zm87.25-130.37a1.49,1.49,0,0,0,.12-.14c16-21,31.87-48,14.24-63.81-12.81-11.65-37.82,5.88-49.25,24.71-17.35,26.39-25.79,47.69-31.31,66.22A1.16,1.16,0,0,0,785.6,281C834.84,276.82,830.94,271.27,850.58,252.48Zm114.84,89.09a1.17,1.17,0,0,0,2,1.07c11.42-13,24.89-28.73,36.51-54.11,1.8-3.71,16-41.65,5.65-47.65s-31.53,56.94-36.12,73.3C971.33,320.77,967.38,334.33,965.42,341.57Zm136.7-87c-5.82-2.5-14.35,2.43-17.36,5.76-4.8,5.34-15.17,19.18-22.82,38.52,0,0-11.42,33.87-13.67,43.53a1.17,1.17,0,0,0,1.77,1.24c4.44-2.85,12-8.09,14.61-10.57,17.53-16.36,20.7-18.83,35.61-42.3C1101.76,288.59,1115.26,260.18,1102.12,254.53ZM907.51,342a20.3,20.3,0,0,0-19.57,11.16c-5.57,8.26-3.19,27-2.62,32.84a1.15,1.15,0,0,0,1.6,1c5.38-2.18,17.3-9,19.67-14.51C908.31,368.44,916.65,344.18,907.51,342Zm203.38,33.55c6.48-.14,10.36-1.26,14.11-3.76l.11-.09c7-5.57,12.51-16.15,14.42-21.84.74-2.21,1.76-11.91-4.32-13.32-5.44-1.26-11.56,2.74-14.74,7.31-5.63,8.53-8.81,22.49-10.75,30.26A1.17,1.17,0,0,0,1110.89,375.51Z" transform="translate(-491.82 -175.91)"/>
  <ellipse class="cls-2" cx="652.22" cy="315.63" rx="10.79" ry="13.41" transform="translate(-564.11 129.99) rotate(-25.05)"/>
</svg>
